<?xml version="1.0" encoding="UTF-8" standalone="no"?>
<!-- Created with Inkscape (http://www.inkscape.org/) -->

<svg
   width="70.505531mm"
   height="70.505531mm"
   viewBox="0 0 70.505531 70.505531"
   version="1.1"
   id="svg1"
   xml:space="preserve"
   xmlns="http://www.w3.org/2000/svg"
   xmlns:svg="http://www.w3.org/2000/svg"><defs
     id="defs1" /><g
     id="layer1"
     transform="translate(-71.23616,-136.6273)"><rect
       style="fill:#232323;stroke-width:3.34301;stroke-linecap:round;stroke-linejoin:round;paint-order:stroke fill markers;fill-opacity:1"
       id="rect1"
       width="70.505531"
       height="70.505531"
       x="71.23616"
       y="136.6273"
       ry="10.95941" /><g
       id="g2"
       transform="translate(-0.06406378,0.00789066)"><g
         id="g3"
         transform="rotate(-0.58904217,106.55326,171.87207)"><path
           style="fill:#e7e7e7;fill-opacity:1;stroke-width:0.846173"
           d="m 105.94854,199.79046 c -0.0576,-0.005 -0.23046,-0.0199 -0.38409,-0.0329 -2.56056,-0.21809 -4.98893,-1.5651 -6.567302,-3.64289 -1.745113,-2.29727 -2.322034,-5.33264 -1.544959,-8.12845 0.859737,-3.09319 3.328311,-5.57452 6.409631,-6.44276 0.7694,-0.21679 1.37863,-0.30821 2.26131,-0.33933 1.5068,-0.0531 2.18649,-0.15553 3.18591,-0.48013 1.14011,-0.37029 2.23975,-0.98431 3.13412,-1.75004 0.2629,-0.22508 0.79379,-0.75321 1.02233,-1.01702 1.05043,-1.21248 1.76122,-2.665 2.08401,-4.25872 0.1329,-0.65618 0.16208,-0.9818 0.1627,-1.8157 4.5e-4,-0.60856 -0.008,-0.8359 -0.0416,-1.09408 -0.14123,-1.09167 -0.40862,-2.01165 -0.85491,-2.94134 -1.2775,-2.66117 -3.71591,-4.54729 -6.62177,-5.12194 -0.19819,-0.0392 -0.45958,-0.0786 -0.84869,-0.12791 -0.17125,-0.0217 0.42516,0.013 0.79146,0.0461 4.52415,0.4085 8.93192,2.60125 12.0235,5.9814 2.68194,2.93226 4.3708,6.7272 4.77,10.7184 0.12685,1.26828 0.12674,2.58721 -3.1e-4,3.81763 -0.33055,3.20128 -1.51821,6.27397 -3.46404,8.96211 -0.88971,1.22913 -2.09641,2.50642 -3.31401,3.50788 -0.58877,0.48425 -1.52194,1.14136 -2.18202,1.53651 -2.40197,1.43795 -5.04116,2.29589 -7.93787,2.58043 -0.35084,0.0344 -1.8304,0.0648 -2.0834,0.0427 z m 0.93049,-6.53959 c 1.3359,-0.21665 2.32839,-1.38712 2.32829,-2.7458 -10e-5,-1.3892 -0.97994,-2.55038 -2.33795,-2.77064 -1.71638,-0.27839 -3.24836,1.02824 -3.24849,2.77064 -9e-5,1.19699 0.76759,2.26103 1.90663,2.64264 0.40344,0.13517 0.9139,0.17412 1.35152,0.10316 z"
           id="path1" /><path
           style="fill:#e7e7e7;fill-opacity:1;stroke-width:0.846173"
           d="m 107.15749,143.95389 c 0.0576,0.005 0.23046,0.0199 0.38409,0.0329 2.56055,0.21809 4.98892,1.5651 6.5673,3.64289 1.74511,2.29727 2.32203,5.33264 1.54496,8.12845 -0.85974,3.09319 -3.32831,5.57452 -6.40964,6.44276 -0.7694,0.21679 -1.37862,0.30821 -2.2613,0.33933 -1.5068,0.0531 -2.18649,0.15553 -3.18592,0.48013 -1.14011,0.37029 -2.23975,0.98431 -3.13412,1.75004 -0.26289,0.22508 -0.79378,0.75321 -1.022323,1.01702 -1.050431,1.21248 -1.761225,2.665 -2.084014,4.25872 -0.1329,0.65618 -0.162076,0.9818 -0.162694,1.8157 -4.48e-4,0.60856 0.0085,0.8359 0.04155,1.09408 0.141226,1.09167 0.408617,2.01165 0.854914,2.94134 1.277493,2.66117 3.715897,4.54729 6.621767,5.12194 0.19819,0.0392 0.45957,0.0786 0.84869,0.12791 0.17125,0.0217 -0.42516,-0.013 -0.79146,-0.0461 -4.52415,-0.4085 -8.931915,-2.60125 -12.023502,-5.9814 -2.681937,-2.93226 -4.370796,-6.7272 -4.769995,-10.7184 -0.12685,-1.26828 -0.126749,-2.58721 3.04e-4,-3.81763 0.330549,-3.20128 1.518212,-6.27397 3.464038,-8.96211 0.889717,-1.22913 2.096418,-2.50642 3.31402,-3.50788 0.588767,-0.48425 1.521935,-1.14136 2.182017,-1.53651 2.401964,-1.43795 5.041148,-2.29589 7.937868,-2.58043 0.35084,-0.0344 1.83039,-0.0648 2.0834,-0.0427 z m -0.93049,6.53959 c -1.3359,0.21665 -2.3284,1.38712 -2.3283,2.7458 10e-5,1.3892 0.97995,2.55038 2.33796,2.77064 1.71638,0.27839 3.24835,-1.02824 3.24848,-2.77064 9e-5,-1.19699 -0.76759,-2.26103 -1.90662,-2.64264 -0.40345,-0.13517 -0.9139,-0.17412 -1.35152,-0.10316 z"
           id="path2" /></g></g></g></svg>
